<svg xmlns="http://www.w3.org/2000/svg" viewBox="0 0 454 574"
    stroke="#e8505b">
    <path
        d="M1222 2368c-28-29-35-31-52-20-26 16-110 15-133-2-11-9-32-12-57-9-35 5-40 3-44-18-3-13-8-37-11-54-9-43-16-104-18-147-1-21-5-38-9-38s-74 29-155 64-163 67-181 71c-29 6-32 5-32-19 0-13-4-28-10-31-5-3-10-25-10-48 0-59-9-85-31-92-12-4-18-15-18-33 0-15-1-65-3-112-3-47 0-91 5-97 5-7 27-13 48-13 40 0 101-31 129-65 8-10 39-33 68-52 28-18 52-35 52-37 0-11-31-76-39-80-12-8-2-46 17-69 15-16 13-23-14-73-16-30-39-61-51-69-13-9-32-33-43-55s-27-40-34-40c-17 0-66-63-66-84 0-8-13-25-30-38-16-12-30-25-30-30 0-12 72-76 100-88s67-101 53-123c-37-57-35-116 5-194 18-34 45-96 62-138 35-88 75-155 93-155 6 0 25 18 40 40 16 22 32 40 36 40 20 0 52-51 60-96 15-74 38-124 60-124 10 0 26-9 36-20 30-33 52-25 90 34 21 34 56 68 92 93l57 39 83-49c47-28 89-47 98-43 8 3 21 18 27 33 17 39 16 38 39 17 33-30 69-3 92 68 16 49 23 58 49 63 17 4 27 12 25 18-3 7-22 52-43 100-31 72-35 90-24 97 8 5 18 6 22 3 14-8 38 17 38 39 0 10-8 21-17 25-10 3-26 15-36 25-18 19-18 21 0 91 15 55 24 73 39 75 10 2 37 12 60 22 36 16 43 26 64 82 12 35 31 81 41 103 21 47 51 160 69 260 19 111 21 117 37 111 8-3 18 4 25 19 8 19 18 25 36 23 27-3 28-2 46 105 8 41 9 42 79 21 18-6 18 0 10 113-14 200-11 248 16 277 20 21 22 31 17 68-11 73-11 73-148 75-68 2-145 3-172 4-42 2-53-2-70-23-20-25-56-48-73-48-5 0-13 10-18 23-8 18-17 22-50 19-22-1-89 10-149 26-107 27-110 29-122 62-7 19-13 45-13 58-1 12-7 22-15 22s-16 4-18 9c-1 4-12 11-23 15-15 4-29-3-53-26zm74-3c13-8 24-30 27-52 4-21 12-46 19-56 15-19 195-66 268-70 38-2 45-5 48-24 2-13 8-23 13-23 20 0 84 39 96 58 14 24 79 38 99 21 14-11 29-12 178-10 38 1 71 0 73-2 1-2 6-25 9-51 6-39 3-50-14-69-26-27-29-79-15-252 6-66 9-121 8-123-2-2-19 1-39 6-42 12-49 4-60-63-12-68-16-75-43-75-16 0-27-7-30-19-3-11-15-21-26-23-18-3-23-16-39-103-23-134-46-220-73-280-13-27-31-74-40-103-15-44-24-55-54-69-20-9-43-15-52-14-23 3-35-16-53-84-8-33-18-70-22-83-5-16-2-22 9-22 8 0 17-7 21-15 3-8 12-15 21-15 8 0 15-9 15-21 0-15-5-19-18-15-11 4-25-1-36-12-17-20-18-18 60-198 3-6-6-14-20-18-19-5-28-18-43-63-22-65-43-84-73-65-26 16-62 16-58 0 1-7-4-23-11-36l-12-23-47 27c-26 15-66 40-89 55-26 17-45 24-49 18-3-6-30-26-60-45-32-21-66-54-86-84-35-54-55-61-83-30-10 11-26 20-36 20-13 0-22 19-39 85-26 97-53 131-94 121-15-3-26-11-26-17s-9-22-19-36l-20-24-26 41c-15 23-33 61-41 84-18 52-37 95-75 169-33 64-35 94-13 152 19 49 19 49-2 108-12 34-25 52-43 60-14 6-43 26-63 43l-37 33 24 15c13 9 35 37 48 63 13 27 34 53 47 60 13 6 30 24 38 40 8 15 31 44 51 64 39 39 81 103 81 123 0 7-9 21-20 31-24 22-25 42-5 65 9 10 18 33 22 53 5 33 3 37-38 63-24 16-66 48-93 71-26 24-58 45-70 48-11 2-38 7-59 10l-38 6 2 72c3 113 9 145 30 150 10 3 18 13 19 23 1 11 2 40 3 65s8 53 15 61c7 9 10 23 6 31-8 22 16 14 204-67 85-36 158-66 162-66 5 0 9 17 9 38 0 20 6 78 13 127l13 90 47 5c27 3 53 11 60 18 14 14 94 16 103 2 11-17 43-11 72 15 33 29 41 30 69 10z"
        transform="matrix(.1 0 0 -.1 104.576 511.213)" style="paint-order: fill; stroke-width: 220;"></path>
    <path stroke-linecap="round" stroke-linejoin="round"
        d="m116.543 247.408 23.639-137.353c16.587-57.282 51.765-80.243 93.911-81.939 37.688-1.517 87.633 11.251 96.278 74.847l18.911 143.491M187 538.66h80c56 0 84 0 105.399-12.596 18.8-11.064 34.101-28.745 43.701-50.499C427 450.837 427 418.482 427 353.771v-69.333c0-32.355 0-48.534-5.447-60.899-4.8-10.862-12.452-19.701-21.853-25.248-10.699-6.297-24.7-6.297-52.7-6.297H107c-28 0-42.025 0-52.698 6.297-9.428 5.547-17.076 14.386-21.851 25.248C27 235.904 27 252.083 27 284.438v69.333c0 64.711 0 97.066 10.901 121.794 9.574 21.754 24.873 39.435 43.701 50.499C102.975 538.66 130.975 538.66 187 538.66Z"
        style="fill: none; stroke-width: 32;"></path>
</svg>